# xmcd
#
# Track frame offsets:
#	150
#	21573
#	40333
#	56008
#	67963
#	84448
#	101440
#	119103
#	133695
#	154478
#	175820
#
# Disc length: 2599 seconds
#
# Revision: 4
# Processed by: cddbd v1.5.1PL0 Copyright (c) Steve Scherf et al.
# Submitted via: audiograbber 1.82.02
#
DISCID=9b0a250b
DTITLE=Stanislaw Sojka - Acoustic
DYEAR=1991
DGENRE=Jazz
TTITLE0=One Hundered Years
TTITLE1=I Never Felt This before
TTITLE2=Take It Home
TTITLE3=Mr Cool
TTITLE4=No Place For Poetry
TTITLE5=Cud Niepamieci
TTITLE6=Play It Again
TTITLE7=Railway Hotel
TTITLE8=All About You
TTITLE9=Tak Jak w kinie
TTITLE10=Hard To Part
EXTD=ID3G:   0
EXTT0=
EXTT1=
EXTT2=
EXTT3=
EXTT4=
EXTT5=
EXTT6=
EXTT7=
EXTT8=
EXTT9=
EXTT10=
PLAYORDER=
